<svg width="37" height="36" viewBox="0 0 37 36" fill="none" xmlns="http://www.w3.org/2000/svg">
<path d="M16.0867 11.455V16.9103V19.0907V24.5459H20.683V19.0907V16.9103V11.455H16.0867Z" fill="#FAB908"/>
<path d="M2.29814 19.0226C3.56737 19.0226 4.59628 18.0152 4.59628 16.7726C4.59628 15.5299 3.56737 14.5226 2.29814 14.5226C1.02891 14.5226 0 15.5299 0 16.7726C0 18.0152 1.02891 19.0226 2.29814 19.0226Z" fill="#0066D9"/>
<path d="M2.29814 21.4774C3.56737 21.4774 4.59628 20.4701 4.59628 19.2274C4.59628 17.9848 3.56737 16.9774 2.29814 16.9774C1.02891 16.9774 0 17.9848 0 19.2274C0 20.4701 1.02891 21.4774 2.29814 21.4774Z" fill="#0066D9"/>
<path d="M4.59628 16.7729H0V19.2275H4.59628V16.7729Z" fill="#0066D9"/>
<path d="M34.4718 21.4774C35.7411 21.4774 36.7699 20.4701 36.7699 19.2274C36.7699 17.9848 35.7411 16.9774 34.4718 16.9774C33.2026 16.9774 32.1737 17.9848 32.1737 19.2274C32.1737 20.4701 33.2026 21.4774 34.4718 21.4774Z" fill="#4285F4"/>
<path d="M34.4718 19.0226C35.7411 19.0226 36.7699 18.0152 36.7699 16.7726C36.7699 15.5299 35.7411 14.5226 34.4718 14.5226C33.2026 14.5226 32.1737 15.5299 32.1737 16.7726C32.1737 18.0152 33.2026 19.0226 34.4718 19.0226Z" fill="#4285F4"/>
<path d="M32.1737 19.2278H36.7699V16.7732H32.1737V19.2278Z" fill="#4285F4"/>
<path d="M10.2369 26.3867C11.506 26.3867 12.535 25.3794 12.535 24.1367C12.535 22.8941 11.506 21.8867 10.2369 21.8867C8.96762 21.8867 7.93872 22.8941 7.93872 24.1367C7.93872 25.3794 8.96762 26.3867 10.2369 26.3867Z" fill="#EA4335"/>
<path d="M10.2369 28.8414C11.506 28.8414 12.535 27.8341 12.535 26.5914C12.535 25.3488 11.506 24.3413 10.2369 24.3413C8.96762 24.3413 7.93872 25.3488 7.93872 26.5914C7.93872 27.8341 8.96762 28.8414 10.2369 28.8414Z" fill="#EA4335"/>
<path d="M12.535 24.137H7.93872V26.5915H12.535V24.137Z" fill="#EA4335"/>
<path d="M10.2369 11.6592C11.506 11.6592 12.535 10.6518 12.535 9.40919C12.535 8.16655 11.506 7.15918 10.2369 7.15918C8.96762 7.15918 7.93872 8.16655 7.93872 9.40919C7.93872 10.6518 8.96762 11.6592 10.2369 11.6592Z" fill="#EA4335"/>
<path d="M10.2369 19.6363C11.506 19.6363 12.535 18.6289 12.535 17.3862C12.535 16.1436 11.506 15.1362 10.2369 15.1362C8.96762 15.1362 7.93872 16.1436 7.93872 17.3862C7.93872 18.6289 8.96762 19.6363 10.2369 19.6363Z" fill="#EA4335"/>
<path d="M12.535 9.40894H7.93872V17.4374H12.535V9.40894Z" fill="#EA4335"/>
<path d="M26.533 14.1139C27.8022 14.1139 28.8311 13.1066 28.8311 11.8639C28.8311 10.6213 27.8022 9.61389 26.533 9.61389C25.2638 9.61389 24.2349 10.6213 24.2349 11.8639C24.2349 13.1066 25.2638 14.1139 26.533 14.1139Z" fill="#34A853"/>
<path d="M26.533 11.6592C27.8022 11.6592 28.8311 10.6518 28.8311 9.40919C28.8311 8.16655 27.8022 7.15918 26.533 7.15918C25.2638 7.15918 24.2349 8.16655 24.2349 9.40919C24.2349 10.6518 25.2638 11.6592 26.533 11.6592Z" fill="#34A853"/>
<path d="M24.2346 11.8636H28.831V9.40906H24.2346V11.8636Z" fill="#34A853"/>
<path d="M18.3848 6.95473C19.6541 6.95473 20.683 5.94737 20.683 4.70472C20.683 3.46208 19.6541 2.45471 18.3848 2.45471C17.1156 2.45471 16.0867 3.46208 16.0867 4.70472C16.0867 5.94737 17.1156 6.95473 18.3848 6.95473Z" fill="#FAB908"/>
<path d="M18.3848 4.50002C19.6541 4.50002 20.683 3.49265 20.683 2.25001C20.683 1.00737 19.6541 0 18.3848 0C17.1156 0 16.0867 1.00737 16.0867 2.25001C16.0867 3.49265 17.1156 4.50002 18.3848 4.50002Z" fill="#FAB908"/>
<path d="M16.0869 4.70457H20.6833V2.25H16.0869V4.70457Z" fill="#FAB908"/>
<path d="M18.3848 36C19.6541 36 20.683 34.9927 20.683 33.75C20.683 32.5074 19.6541 31.5 18.3848 31.5C17.1156 31.5 16.0867 32.5074 16.0867 33.75C16.0867 34.9927 17.1156 36 18.3848 36Z" fill="#FAB908"/>
<path d="M18.3848 33.5458C19.6541 33.5458 20.683 32.5384 20.683 31.2958C20.683 30.0531 19.6541 29.0458 18.3848 29.0458C17.1156 29.0458 16.0867 30.0531 16.0867 31.2958C16.0867 32.5384 17.1156 33.5458 18.3848 33.5458Z" fill="#FAB908"/>
<path d="M16.0869 33.7502H20.6833V31.2957H16.0869V33.7502Z" fill="#FAB908"/>
<path d="M26.533 28.8414C27.8022 28.8414 28.8311 27.8341 28.8311 26.5914C28.8311 25.3488 27.8022 24.3413 26.533 24.3413C25.2638 24.3413 24.2349 25.3488 24.2349 26.5914C24.2349 27.8341 25.2638 28.8414 26.533 28.8414Z" fill="#34A853"/>
<path d="M26.533 20.8638C27.8022 20.8638 28.8311 19.8564 28.8311 18.6138C28.8311 17.3711 27.8022 16.3638 26.533 16.3638C25.2638 16.3638 24.2349 17.3711 24.2349 18.6138C24.2349 19.8564 25.2638 20.8638 26.533 20.8638Z" fill="#34A853"/>
<path d="M24.2346 26.5912H28.831V18.6138H24.2346V26.5912Z" fill="#34A853"/>
<path d="M18.3848 13.7047C19.6541 13.7047 20.683 12.6972 20.683 11.4547C20.683 10.212 19.6541 9.20459 18.3848 9.20459C17.1156 9.20459 16.0867 10.212 16.0867 11.4547C16.0867 12.6972 17.1156 13.7047 18.3848 13.7047Z" fill="#FAB908"/>
<path d="M18.3848 26.7958C19.6541 26.7958 20.683 25.7884 20.683 24.5458C20.683 23.3031 19.6541 22.2958 18.3848 22.2958C17.1156 22.2958 16.0867 23.3031 16.0867 24.5458C16.0867 25.7884 17.1156 26.7958 18.3848 26.7958Z" fill="#FAB908"/>
</svg>
