<svg width="35" height="34" viewBox="0 0 35 34" fill="none" xmlns="http://www.w3.org/2000/svg">
<path d="M17.2377 0C13.8283 0 10.4956 0.997021 7.66087 2.86496C4.82623 4.73301 2.61685 7.38807 1.3121 10.4944C0.00745117 13.6007 -0.333904 17.0189 0.331258 20.3165C0.996319 23.6142 2.63801 26.6433 5.04876 29.0208C7.45951 31.3983 10.531 33.0174 13.8748 33.6733C17.2185 34.3293 20.6844 33.9927 23.8341 32.7059C26.9839 31.4192 29.6761 29.2403 31.5702 26.4447C33.4643 23.6491 34.4752 20.3623 34.4752 17C34.4752 12.4913 32.6591 8.16731 29.4265 4.97922C26.1937 1.79103 21.8094 0 17.2377 0ZM25.1479 24.5164C25.0746 24.6365 24.9777 24.7411 24.8631 24.824C24.7484 24.9069 24.6181 24.9664 24.4798 24.9992C24.3417 25.0321 24.1982 25.0374 24.0578 25.0151C23.9174 24.9928 23.7829 24.9432 23.6622 24.8692C19.6176 22.427 14.5275 21.8843 8.5294 23.2275C8.39292 23.2596 8.25143 23.2647 8.11294 23.2423C7.97455 23.2201 7.84188 23.1709 7.72295 23.0978C7.60391 23.0246 7.50082 22.9288 7.41959 22.8159C7.33837 22.7031 7.28081 22.5755 7.25002 22.4405C7.21723 22.3052 7.21201 22.1647 7.23437 22.0272C7.25684 21.8898 7.30648 21.7581 7.38059 21.6396C7.4547 21.5211 7.55186 21.4183 7.66629 21.3369C7.78081 21.2555 7.91047 21.1971 8.04785 21.1652C14.61 19.6863 20.2504 20.324 24.7903 23.0647C25.0325 23.2107 25.2062 23.4455 25.2732 23.7176C25.3403 23.9897 25.2952 24.277 25.1479 24.5164ZM27.2528 19.8898C27.0606 20.1815 26.762 20.3891 26.419 20.4699C26.0759 20.5508 25.7145 20.4985 25.4093 20.324C20.1786 17.4464 14.0035 16.734 8.24049 18.3431C8.06119 18.4418 7.86173 18.4995 7.65686 18.5122C7.45189 18.5249 7.24671 18.4922 7.05628 18.4164C6.86585 18.3407 6.69507 18.224 6.55638 18.0747C6.41769 17.9254 6.3146 17.7473 6.25473 17.5537C6.19487 17.36 6.17972 17.1556 6.21041 16.9553C6.2411 16.7551 6.31681 16.5643 6.43203 16.3967C6.54725 16.2291 6.69908 16.0891 6.87628 15.9868C7.05357 15.8847 7.25173 15.8228 7.4563 15.8061C10.673 14.8929 14.0423 14.6228 17.3663 15.012C20.6903 15.401 23.902 16.4414 26.8126 18.0719C27.1083 18.2614 27.3188 18.5558 27.4007 18.8941C27.4826 19.2325 27.4297 19.5889 27.2528 19.8898ZM27.4316 15.0734C21.9288 11.8172 12.7253 11.5187 7.41509 13.1061C7.00644 13.2285 6.5652 13.1857 6.18855 12.9872C5.8119 12.7888 5.53061 12.4509 5.40656 12.0478C5.28251 11.6449 5.32584 11.2097 5.5271 10.8382C5.72826 10.4668 6.07092 10.1894 6.47956 10.0671C12.574 8.24901 22.6854 8.60177 29.0825 12.3328C29.4113 12.5649 29.6396 12.9106 29.7218 13.3012C29.8039 13.6916 29.734 14.0984 29.526 14.4404C29.3179 14.7824 28.9869 15.0346 28.5989 15.1469C28.2108 15.2592 27.794 15.2233 27.4316 15.0463V15.0734Z" fill="#1ED760"/>
</svg>
