<svg width="40" height="28" viewBox="0 0 40 28" fill="none" xmlns="http://www.w3.org/2000/svg">
<path fill-rule="evenodd" clip-rule="evenodd" d="M17.1531 0.0521453C17.1531 0.0861802 16.1285 0.103978 14.1823 0.103978C11.5762 0.103978 11.2116 0.113658 11.2116 0.18204C11.2116 0.249798 11.0163 0.260102 9.76483 0.260102C8.51336 0.260102 8.31806 0.270718 8.31806 0.338164C8.31806 0.404672 8.18321 0.416225 7.4141 0.416225C6.64468 0.416225 6.50983 0.428091 6.50983 0.494287C6.50983 0.559547 6.4066 0.572349 5.88983 0.572349C5.36004 0.572349 5.26983 0.584527 5.26983 0.65447C5.26983 0.718481 5.21682 0.734405 5.02431 0.727848C4.57884 0.712548 4.49483 0.725038 4.49483 0.806534C4.49483 0.867423 4.42601 0.884596 4.18483 0.884596C3.94365 0.884596 3.87483 0.902082 3.87483 0.962658C3.87483 1.0173 3.82027 1.04072 3.6941 1.04072C3.56762 1.04072 3.51306 1.06445 3.51306 1.11878C3.51306 1.17093 3.4616 1.19684 3.35806 1.19684C3.25483 1.19684 3.20306 1.22307 3.20306 1.27491C3.20306 1.32705 3.1516 1.35297 3.04806 1.35297C2.94483 1.35297 2.89306 1.3792 2.89306 1.43103C2.89306 1.47412 2.85834 1.50909 2.81556 1.50909C2.77309 1.50909 2.73806 1.54437 2.73806 1.58715C2.73806 1.6393 2.6866 1.66521 2.58306 1.66521C2.47983 1.66521 2.42806 1.69144 2.42806 1.74328C2.42806 1.78637 2.39334 1.82134 2.35056 1.82134C2.30809 1.82134 2.27306 1.85662 2.27306 1.8994C2.27306 1.94249 2.23834 1.97746 2.19556 1.97746C2.15309 1.97746 2.11806 2.01275 2.11806 2.05552C2.11806 2.09861 2.08334 2.13358 2.04056 2.13358C1.99809 2.13358 1.96306 2.16887 1.96306 2.21165C1.96306 2.25474 1.92834 2.28971 1.88556 2.28971C1.84309 2.28971 1.80806 2.32499 1.80806 2.36777C1.80806 2.41086 1.77334 2.44583 1.73056 2.44583C1.6791 2.44583 1.65306 2.49798 1.65306 2.60196C1.65306 2.70625 1.62733 2.75808 1.57556 2.75808C1.53309 2.75808 1.49806 2.79336 1.49806 2.83614C1.49806 2.87923 1.46334 2.9142 1.42056 2.9142C1.3691 2.9142 1.34306 2.96635 1.34306 3.07033C1.34306 3.17462 1.31733 3.22645 1.26556 3.22645C1.2141 3.22645 1.18806 3.2786 1.18806 3.38257C1.18806 3.48686 1.16233 3.5387 1.11056 3.5387C1.05662 3.5387 1.03306 3.59365 1.03306 3.72105C1.03306 3.84813 1.00981 3.90309 0.955563 3.90309C0.895423 3.90309 0.878063 3.97241 0.878063 4.21534C0.878063 4.45827 0.861013 4.52758 0.800563 4.52758C0.739803 4.52758 0.723063 4.59971 0.723063 4.86575C0.723063 5.13178 0.706633 5.20422 0.645563 5.20422C0.582943 5.20422 0.568063 5.28791 0.568063 5.64637C0.568063 6.00483 0.553493 6.08882 0.490563 6.08882C0.426083 6.08882 0.413063 6.1928 0.413063 6.71331C0.413063 7.23383 0.400353 7.33781 0.335563 7.33781C0.269843 7.33781 0.258063 7.47364 0.258063 8.24863C0.258063 9.02332 0.246593 9.15915 0.180563 9.15915C0.116393 9.15915 0.103063 9.26 0.103063 9.75335C0.103063 10.1799 0.0850833 10.3551 0.0385833 10.3738C-0.0131866 10.3947 -0.0131866 10.401 0.0385833 10.4041C0.120733 10.4094 0.133753 12.4899 0.0516033 12.4899C0.0181234 12.4899 -0.000166642 13.0451 -0.000166642 14.0511C-0.000166642 15.0572 0.0181234 15.6124 0.0516033 15.6124C0.0847733 15.6124 0.103063 16.1935 0.103063 17.2517C0.103063 18.6743 0.113293 18.891 0.180563 18.891C0.246593 18.891 0.258063 19.0296 0.258063 19.8277C0.258063 20.6258 0.269533 20.7644 0.335563 20.7644C0.400353 20.7644 0.413063 20.8684 0.413063 21.3889C0.413063 21.9094 0.426083 22.0134 0.490563 22.0134C0.553183 22.0134 0.568063 22.0943 0.568063 22.4297C0.568063 22.765 0.583253 22.8462 0.645563 22.8462C0.706943 22.8462 0.723063 22.9205 0.723063 23.205C0.723063 23.4757 0.742283 23.5709 0.800563 23.5934C0.855433 23.6146 0.878063 23.7005 0.878063 23.8853C0.878063 24.0833 0.896973 24.147 0.955563 24.147C1.00733 24.147 1.03306 24.1992 1.03306 24.3031C1.03306 24.4074 1.0591 24.4593 1.11056 24.4593C1.16233 24.4593 1.18806 24.5114 1.18806 24.6154C1.18806 24.7197 1.2141 24.7715 1.26556 24.7715C1.31733 24.7715 1.34306 24.8237 1.34306 24.9276C1.34306 25.0319 1.3691 25.0838 1.42056 25.0838C1.47233 25.0838 1.49806 25.1359 1.49806 25.2399C1.49806 25.3442 1.5241 25.396 1.57556 25.396C1.61834 25.396 1.65306 25.4313 1.65306 25.4741C1.65306 25.5172 1.68809 25.5521 1.73056 25.5521C1.77334 25.5521 1.80806 25.5874 1.80806 25.6302C1.80806 25.6733 1.84309 25.7082 1.88556 25.7082C1.92834 25.7082 1.96306 25.7435 1.96306 25.7863C1.96306 25.8294 1.99809 25.8644 2.04056 25.8644C2.08334 25.8644 2.11806 25.8997 2.11806 25.9424C2.11806 25.9855 2.15309 26.0205 2.19556 26.0205C2.23834 26.0205 2.27616 26.0558 2.27957 26.0986C2.29197 26.2487 2.29941 26.2725 2.34591 26.3156C2.37319 26.3405 2.37815 26.3327 2.358 26.2975C2.33878 26.2637 2.34684 26.2213 2.37567 26.2032C2.4045 26.1854 2.42806 26.2072 2.42806 26.2516C2.42806 26.2962 2.46309 26.3327 2.50556 26.3327C2.54834 26.3327 2.58306 26.368 2.58306 26.4108C2.58306 26.4629 2.63483 26.4889 2.73806 26.4889C2.8416 26.4889 2.89306 26.5151 2.89306 26.5669C2.89306 26.61 2.92809 26.645 2.97056 26.645C3.01334 26.645 3.04806 26.6803 3.04806 26.7231C3.04806 26.7777 3.10262 26.8011 3.2291 26.8011C3.35527 26.8011 3.40983 26.8248 3.40983 26.8792C3.40983 26.9313 3.4616 26.9572 3.56483 26.9572C3.66558 26.9572 3.71983 26.9838 3.71983 27.0325C3.71983 27.0853 3.79299 27.1124 3.96535 27.1237C4.12779 27.1343 4.20622 27.1614 4.19785 27.2045C4.18855 27.2514 4.27969 27.2695 4.52056 27.2695C4.78468 27.2695 4.8566 27.2863 4.8566 27.3475C4.8566 27.4119 4.94836 27.4256 5.37306 27.4256C5.79807 27.4256 5.88983 27.4397 5.88983 27.5037C5.88983 27.5696 6.0098 27.5817 6.65925 27.5817C7.29568 27.5817 7.43394 27.5955 7.45843 27.6598C7.48385 27.726 7.6652 27.7379 8.65224 27.7379C9.65261 27.7379 9.8166 27.7491 9.8166 27.8159C9.8166 27.884 10.0807 27.894 11.8831 27.894C13.2266 27.894 13.9498 27.9124 13.9498 27.9461C13.9498 27.9805 15.9562 27.9983 19.8656 27.9983C23.775 27.9983 25.7816 27.9805 25.7816 27.9461C25.7816 27.9124 26.4961 27.894 27.8223 27.894C29.602 27.894 29.8631 27.884 29.8631 27.8159C29.8631 27.7491 30.0267 27.7379 31.0256 27.7379C32.0247 27.7379 32.1881 27.7269 32.1881 27.6598C32.1881 27.5939 32.3114 27.5817 32.9891 27.5817C33.6664 27.5817 33.7898 27.5699 33.7898 27.5037C33.7898 27.4397 33.8816 27.4256 34.3066 27.4256C34.7425 27.4256 34.8231 27.4128 34.8231 27.3438C34.8231 27.282 34.8711 27.2639 35.0168 27.2707C35.3941 27.2882 35.4948 27.2717 35.4948 27.1914C35.4948 27.1337 35.555 27.1134 35.7273 27.1134C35.8997 27.1134 35.9598 27.0934 35.9598 27.0353C35.9598 26.9835 36.0116 26.9572 36.1148 26.9572C36.2181 26.9572 36.2698 26.9313 36.2698 26.8792C36.2698 26.8248 36.3244 26.8011 36.4506 26.8011C36.577 26.8011 36.6316 26.7777 36.6316 26.7231C36.6316 26.6712 36.6831 26.645 36.7866 26.645C36.8898 26.645 36.9416 26.6191 36.9416 26.5669C36.9416 26.5241 36.9763 26.4889 37.0191 26.4889C37.0616 26.4889 37.0966 26.4539 37.0966 26.4108C37.0966 26.368 37.1313 26.3327 37.1741 26.3327C37.2166 26.3327 37.2516 26.2978 37.2516 26.2547C37.2516 26.2119 37.2863 26.1766 37.3291 26.1766C37.3716 26.1766 37.4066 26.1416 37.4066 26.0986C37.4066 26.0467 37.4581 26.0205 37.5616 26.0205C37.6992 26.0205 37.7166 26.0033 37.7166 25.8644C37.7166 25.7604 37.7423 25.7082 37.7941 25.7082C37.8366 25.7082 37.8716 25.6733 37.8716 25.6302C37.8716 25.5874 37.9063 25.5521 37.9491 25.5521C37.9916 25.5521 38.0266 25.5172 38.0266 25.4741C38.0266 25.4313 38.0613 25.396 38.1041 25.396C38.1466 25.396 38.1816 25.361 38.1816 25.3179C38.1816 25.2752 38.2163 25.2399 38.2591 25.2399C38.3106 25.2399 38.3366 25.188 38.3366 25.0838C38.3366 24.9798 38.3623 24.9276 38.4141 24.9276C38.4656 24.9276 38.4916 24.8758 38.4916 24.7715C38.4916 24.6675 38.5173 24.6154 38.5691 24.6154C38.623 24.6154 38.6466 24.5604 38.6466 24.4333C38.6466 24.3063 38.6698 24.2513 38.7241 24.2513C38.7827 24.2513 38.8016 24.187 38.8016 23.9856C38.8016 23.7704 38.8165 23.7255 38.8791 23.7495C38.943 23.7742 38.9566 23.7208 38.9566 23.4429C38.9566 23.1784 38.973 23.1063 39.0341 23.1063C39.0961 23.1063 39.1116 23.0282 39.1116 22.716C39.1116 22.4037 39.1271 22.3257 39.1891 22.3257C39.2533 22.3257 39.2666 22.2245 39.2666 21.7271C39.2666 21.23 39.2796 21.1288 39.3441 21.1288C39.4095 21.1288 39.4216 21.0046 39.4216 20.322C39.4216 19.6397 39.4334 19.5154 39.4991 19.5154C39.5657 19.5154 39.5766 19.3418 39.5766 18.2665C39.5766 17.1911 39.5871 17.0175 39.6541 17.0175C39.722 17.0175 39.7316 16.6503 39.7316 14.0252C39.7316 11.3998 39.722 11.0326 39.6541 11.0326C39.5871 11.0326 39.5766 10.8562 39.5766 9.75616C39.5766 8.66923 39.5648 8.47501 39.4991 8.44941C39.4349 8.42474 39.4216 8.28548 39.4216 7.64444C39.4216 6.99028 39.4095 6.86944 39.3441 6.86944C39.2799 6.86944 39.2666 6.77389 39.2666 6.32301C39.2666 5.86057 39.2539 5.77657 39.1851 5.77657C39.1215 5.77657 39.1057 5.72318 39.1122 5.52927C39.1274 5.08057 39.115 4.99595 39.0341 4.99595C38.9721 4.99595 38.9566 4.91789 38.9566 4.60565C38.9566 4.2934 38.9411 4.21534 38.8791 4.21534C38.8248 4.21534 38.8016 4.16038 38.8016 4.0333C38.8016 3.9059 38.778 3.85094 38.7241 3.85094C38.6568 3.85094 38.6091 3.57867 38.6398 3.37165C38.6429 3.35104 38.6088 3.34854 38.5644 3.36571C38.5133 3.38538 38.4876 3.3704 38.4938 3.32481C38.5161 3.16275 38.4873 3.07033 38.4141 3.07033C38.3713 3.07033 38.3366 3.03535 38.3366 2.99226C38.3366 2.94949 38.3016 2.9142 38.2591 2.9142C38.2073 2.9142 38.1816 2.86237 38.1816 2.75808C38.1816 2.6541 38.1556 2.60196 38.1041 2.60196C38.0613 2.60196 38.0266 2.56698 38.0266 2.52389C38.0266 2.48112 37.9916 2.44583 37.9491 2.44583C37.9063 2.44583 37.8716 2.41086 37.8716 2.36777C37.8716 2.32499 37.8366 2.28971 37.7941 2.28971C37.7513 2.28971 37.7166 2.24381 37.7166 2.18729C37.7166 2.11766 37.6918 2.09455 37.6391 2.11485C37.5855 2.13546 37.5616 2.11142 37.5616 2.03679C37.5616 1.96216 37.5374 1.93812 37.4841 1.95873C37.4348 1.97777 37.4066 1.9581 37.4066 1.90502C37.4066 1.85912 37.3716 1.82134 37.3291 1.82134C37.2863 1.82134 37.2516 1.78637 37.2516 1.74328C37.2516 1.7005 37.219 1.66521 37.1794 1.66521C37.14 1.66521 37.0941 1.63024 37.0777 1.58715C37.0616 1.54437 36.9893 1.50909 36.9174 1.50909C36.8356 1.50909 36.7866 1.48005 36.7866 1.43103C36.7866 1.3792 36.7348 1.35297 36.6316 1.35297C36.5281 1.35297 36.4766 1.32705 36.4766 1.27491C36.4766 1.22057 36.422 1.19684 36.2956 1.19684C36.1694 1.19684 36.1148 1.17342 36.1148 1.11878C36.1148 1.06695 36.0631 1.04072 35.9598 1.04072C35.8566 1.04072 35.8048 1.0148 35.8048 0.962658C35.8048 0.903643 35.7416 0.884596 35.5466 0.884596C35.3513 0.884596 35.2881 0.865549 35.2881 0.806534C35.2881 0.744085 35.2106 0.728473 34.9006 0.728473C34.5906 0.728473 34.5131 0.71286 34.5131 0.650411C34.5131 0.585151 34.4064 0.572349 33.8617 0.572349C33.3041 0.572349 33.2148 0.561108 33.2402 0.494287C33.2659 0.426842 33.1456 0.416225 32.3415 0.416225C31.5507 0.416225 31.4131 0.404672 31.4131 0.338164C31.4131 0.270718 31.2209 0.260102 29.9923 0.260102C28.7638 0.260102 28.5716 0.249486 28.5716 0.18204C28.5716 0.113658 28.2011 0.103978 25.5491 0.103978C23.5685 0.103978 22.5266 0.0861802 22.5266 0.0521453C22.5266 0.0181103 21.5966 0 19.8398 0C18.0831 0 17.1531 0.0181103 17.1531 0.0521453ZM16.4717 8.37884C16.7079 8.52185 16.911 8.63894 16.923 8.63894C16.9354 8.63894 17.1803 8.77945 17.4674 8.95119C17.7545 9.12293 17.9975 9.26344 18.0077 9.26344C18.0177 9.26344 18.3785 9.4742 18.8094 9.73181C19.2403 9.98941 19.6008 10.2002 19.6111 10.2002C19.621 10.2002 19.9449 10.3875 20.3306 10.6164C20.7165 10.8453 21.0408 11.0326 21.051 11.0326C21.0615 11.0326 21.3629 11.2084 21.7206 11.4229C22.0783 11.6378 22.3803 11.8132 22.3914 11.8132C22.4026 11.8132 22.7644 12.024 23.1953 12.2816C23.6262 12.5392 23.9867 12.75 23.9966 12.75C24.0062 12.75 24.3088 12.9258 24.669 13.1403C25.0289 13.3551 25.3318 13.5306 25.342 13.5306C25.3522 13.5306 25.5079 13.6177 25.6874 13.7242C25.998 13.9084 26.0888 13.9837 26.0907 14.0583C26.0916 14.0905 25.656 14.3612 25.1356 14.6522C24.9936 14.7318 24.6486 14.9335 24.3686 15.1006C24.089 15.2676 23.8525 15.4041 23.8429 15.4041C23.8329 15.4041 23.5155 15.5871 23.137 15.8106C22.7588 16.0342 22.1118 16.412 21.6998 16.6503C21.2878 16.8885 20.6189 17.2794 20.2134 17.5189C19.8082 17.7584 19.4678 17.9542 19.457 17.9542C19.4464 17.9542 19.0853 18.165 18.6544 18.4226C18.2235 18.6802 17.8608 18.891 17.8487 18.891C17.8366 18.891 17.681 18.9806 17.5027 19.0899C17.3248 19.1991 17.0164 19.3784 16.8173 19.4883C16.6183 19.5979 16.352 19.7528 16.2252 19.8321C16.0984 19.9114 15.9766 19.9651 15.954 19.951C15.9047 19.9204 15.8985 8.20273 15.9475 8.15309C16.0027 8.09782 16.0203 8.10531 16.4717 8.37884Z" fill="#FC0404"/>
</svg>
